<svg width="211" height="217" viewBox="0 0 211 217" fill="none" xmlns="http://www.w3.org/2000/svg">
<path fill-rule="evenodd" clip-rule="evenodd" d="M116.893 0.720758C111.762 1.87876 107.026 4.89376 103.897 8.99776L102.671 10.6048L100.542 8.45176C93.9655 1.80076 79.7625 -0.0932412 70.3225 4.42076C61.1095 8.82676 54.8325 17.3048 53.7615 26.7888L53.3995 30.0008L49.5365 30.0138C41.8905 30.0398 36.5875 34.0608 33.9695 41.8178C32.9425 44.8598 33.5885 51.3478 35.1595 53.7658C35.7415 54.6618 35.8425 54.5598 33.6735 55.2588C15.3905 61.1488 17.1515 87.3778 37.2585 108.641C39.3985 110.904 41.3915 110.72 40.9435 108.301C40.8535 107.815 40.5495 106.194 40.2675 104.698C39.3645 99.9088 39.7905 94.5328 41.6115 87.7378C42.3225 85.0838 44.1105 81.0328 44.6415 80.8748C57.3665 77.0808 65.8285 71.1098 72.6205 61.1328C74.6835 58.1018 79.1135 49.6568 79.1135 48.7548C79.1135 48.0988 79.5695 48.3338 81.5275 49.9998C85.0125 52.9658 92.4205 58.2978 93.0565 58.2978C93.1655 58.2978 93.6385 58.5708 94.1075 58.9058C97.2235 61.1238 107.033 65.4218 112.873 67.1278C113.753 67.3848 114.723 67.7348 115.029 67.9058C115.334 68.0778 115.939 68.2178 116.374 68.2178C116.808 68.2178 117.494 68.3488 117.898 68.5088C125.784 71.6358 147.524 72.1268 160.553 69.4728C161.609 69.2578 163.092 69.0678 163.849 69.0498L165.225 69.0178L166.422 71.2578C171.268 80.3288 173.89 90.8378 174.644 104.218C174.912 108.979 175.327 109.771 177.068 108.839C178.705 107.963 185.185 97.7028 186.917 93.2438C190.749 83.3788 191.738 78.6778 191.747 70.2978C191.763 55.5038 186.866 47.4328 176.553 45.2548C175.066 44.9408 175.068 44.9538 175.876 40.6978C178.198 28.4628 168.571 20.0888 156.913 24.2038C154.749 24.9668 154.749 24.9668 154.529 22.1248C154.33 19.5428 153.795 17.1208 153.299 16.5538C153.153 16.3868 153.033 16.0748 153.033 15.8618C153.033 13.1448 145.688 5.38976 141.193 3.36076C134.3 0.250758 123.958 -0.873242 116.893 0.720758ZM68.9745 79.8858C67.3575 80.5898 66.5965 82.4448 67.2965 83.9798C68.0385 85.6088 68.2905 85.6468 79.5935 85.8178L90.1535 85.9778L91.4755 86.8378C94.1095 88.5518 94.1535 88.8068 94.1535 102.378C94.1535 114.932 94.1045 115.396 92.6215 116.95C90.8975 118.757 90.7535 118.778 79.8485 118.778C68.9975 118.778 68.5775 118.837 67.4815 120.51C66.6465 121.784 66.8215 122.87 68.0605 124.109L69.1665 125.215L80.4605 125.116C92.6515 125.009 92.1615 125.075 95.1135 123.144C99.0655 120.56 100.553 117.29 100.553 111.193V107.565L107.193 107.652L113.833 107.738L114.014 112.058C114.279 118.376 116.17 121.676 120.89 124.058L122.793 125.018L133.833 125.122C146.346 125.24 146.523 125.211 147.265 122.961C147.601 121.943 147.583 121.606 147.142 120.754C146.149 118.834 145.796 118.778 134.633 118.778C123.673 118.778 123.622 118.771 121.952 116.967C120.386 115.274 120.393 115.343 120.393 102.382V90.1028L121.321 88.6398C122.977 86.0288 122.954 86.0338 134.953 85.8338C146.634 85.6388 146.59 85.6468 147.275 83.5718C147.783 82.0308 147.061 80.5238 145.502 79.8728C144.124 79.2968 126.511 79.2158 123.849 79.7728C116.91 81.2238 114.264 85.1728 114.006 94.4578L113.833 100.698L107.223 100.784L100.612 100.871L100.496 94.7038L100.381 88.5378L99.3225 86.3958C97.6245 82.9608 94.5395 80.5928 90.6975 79.7778C88.0955 79.2258 70.2885 79.3148 68.9745 79.8858ZM70.0235 96.7828C63.2345 100.667 67.9565 111.31 75.1545 108.348C81.7105 105.651 80.0555 96.0688 73.0335 96.0688C71.7985 96.0688 70.9005 96.2818 70.0235 96.7828ZM138.582 96.7048C133.931 99.1618 134.035 105.544 138.767 108.061C144.754 111.244 150.8 103.498 146.405 98.2758C144.585 96.1128 141.047 95.4028 138.582 96.7048ZM105.432 111.318C104.101 111.585 103.275 113.273 102.173 117.978C101.595 120.442 100.84 123.61 100.495 125.018C99.4055 129.466 99.3865 130.643 100.387 131.833L101.25 132.858H107.273H113.296L114.125 131.873C116.408 129.16 114.653 126.84 110.218 126.709C106.74 126.607 106.564 126.461 107.231 124.245C107.959 121.822 109.513 114.969 109.513 114.178C109.513 112.484 107.312 110.941 105.432 111.318Z" fill="#1A267A"/>
<path fill-rule="evenodd" clip-rule="evenodd" d="M55.5175 80.3538C50.1055 82.1978 47.5615 86.0978 47.1495 93.1778C46.9585 96.4468 46.1115 98.9378 45.1905 98.9378C45.0415 98.9378 44.4045 99.4228 43.7765 100.016C41.9415 101.746 42.2565 103.741 44.6425 105.498C46.6495 106.976 47.0625 107.932 47.0905 111.162C47.1615 119.62 51.7965 124.858 59.2105 124.858C62.5925 124.858 63.4415 124.306 63.4235 122.117C63.4065 120.051 62.2515 119.098 59.7645 119.098C55.3735 119.098 53.6725 116.985 53.1795 110.922C52.8475 106.833 52.2215 104.729 50.9125 103.307C50.3975 102.747 50.4345 102.586 51.6245 100.232C52.7965 97.9148 52.9025 97.4768 53.1895 93.7108C53.6545 87.6238 54.8395 86.2368 60.0735 85.6548C62.5465 85.3798 63.4375 84.6208 63.4235 82.8018C63.4005 79.8908 59.9825 78.8318 55.5175 80.3538ZM151.993 80.4958C149.598 82.5548 151.147 85.2858 154.981 85.7618C159.144 86.2788 161.024 88.1058 161.044 91.6538C161.062 94.9248 161.826 98.3928 162.998 100.525C164.048 102.435 164.054 102.469 163.49 103.338C161.968 105.681 161.081 109.175 161.05 112.954C161.018 116.753 158.626 119.098 154.782 119.098C152.255 119.098 151.113 120.019 151.113 122.059C151.113 124.328 151.927 124.858 155.408 124.858C162.303 124.858 166.492 120.525 167.134 112.73C167.553 107.633 167.547 107.65 169.774 105.573C172.016 103.482 172.551 101.39 171.113 100.339C167.861 97.9608 167.574 97.3678 167.157 92.1448C166.98 89.9288 166.698 87.8508 166.531 87.5268C166.364 87.2028 166.031 86.5058 165.79 85.9778C163.713 81.4188 154.962 77.9418 151.993 80.4958Z" fill="#3DFF50"/>
<path d="M4.08 161.64V173.92C4.08 174.347 4 174.64 3.84 174.8C3.70667 174.933 3.42667 175 3 175H0.88V150.8C0.88 149.413 1.16 148.44 1.72 147.88C2.30667 147.293 3.29333 147 4.68 147H10.44C11.8267 147 12.8 147.293 13.36 147.88C13.9467 148.44 14.24 149.413 14.24 150.8V173.92C14.24 174.347 14.16 174.64 14 174.8C13.8667 174.933 13.5867 175 13.16 175H11.04V151.6C11.04 150.827 10.9333 150.267 10.72 149.92C10.5333 149.573 10.0933 149.373 9.4 149.32H5.72C5 149.373 4.54667 149.573 4.36 149.92C4.17333 150.267 4.08 150.827 4.08 151.6V159.32H9.44V160.56C9.44 160.987 9.37333 161.28 9.24 161.44C9.13333 161.573 8.86667 161.64 8.44 161.64H4.08ZM29.0625 154.68C30.4492 154.68 31.4225 154.973 31.9825 155.56C32.5692 156.12 32.8625 157.093 32.8625 158.48V173.92C32.8625 174.347 32.7825 174.64 32.6225 174.8C32.4892 174.933 32.2092 175 31.7825 175H29.6625V159.28C29.6625 158.453 29.5558 157.867 29.3425 157.52C29.1292 157.173 28.6092 157 27.7825 157H22.8625V173.92C22.8625 174.347 22.7825 174.64 22.6225 174.8C22.4892 174.933 22.2092 175 21.7825 175H19.6625V155.76C19.6625 155.333 19.7292 155.053 19.8625 154.92C20.0225 154.76 20.3158 154.68 20.7425 154.68H22.8625V157C23.0225 156.227 23.2625 155.653 23.5825 155.28C23.9292 154.88 24.4892 154.68 25.2625 154.68H29.0625ZM41.7419 175C40.3552 175 39.3685 174.72 38.7819 174.16C38.2219 173.573 37.9419 172.587 37.9419 171.2V158.48C37.9419 157.093 38.2219 156.12 38.7819 155.56C39.3685 154.973 40.3552 154.68 41.7419 154.68H45.5419C46.3152 154.68 46.8619 154.88 47.1819 155.28C47.5285 155.653 47.7819 156.227 47.9419 157H43.0219C42.1952 157 41.6752 157.173 41.4619 157.52C41.2485 157.867 41.1419 158.453 41.1419 159.28V170.4C41.1419 171.227 41.2485 171.813 41.4619 172.16C41.6752 172.507 42.1952 172.68 43.0219 172.68H46.3419V173.92C46.3419 174.347 46.2752 174.64 46.1419 174.8C46.0352 174.933 45.7685 175 45.3419 175H41.7419ZM38.9419 183.04C38.5152 183.04 38.2352 182.96 38.1019 182.8C37.9952 182.667 37.9419 182.387 37.9419 181.96V180.72H46.0619C46.4619 180.72 46.7819 180.693 47.0219 180.64C47.2885 180.587 47.4885 180.48 47.6219 180.32C47.7552 180.16 47.8352 179.933 47.8619 179.64C47.9152 179.347 47.9419 178.947 47.9419 178.44V155.76C47.9419 155.333 48.0085 155.053 48.1419 154.92C48.3019 154.76 48.5952 154.68 49.0219 154.68H51.1419V179.24C51.1419 180.627 50.8485 181.6 50.2619 182.16C49.7019 182.747 48.7285 183.04 47.3419 183.04H38.9419ZM67.6881 172.68V173.92C67.6881 174.347 67.6215 174.64 67.4881 174.8C67.3815 174.933 67.1148 175 66.6881 175H60.6481C59.2615 175 58.2748 174.72 57.6881 174.16C57.1281 173.573 56.8481 172.587 56.8481 171.2V158.48C56.8481 157.093 57.1281 156.12 57.6881 155.56C58.2748 154.973 59.2615 154.68 60.6481 154.68H65.0481C66.4348 154.68 67.4081 154.973 67.9681 155.56C68.5548 156.12 68.8481 157.093 68.8481 158.48V162.96C68.8481 164.347 68.5548 165.333 67.9681 165.92C67.4081 166.48 66.4348 166.76 65.0481 166.76H62.6481C62.2215 166.76 61.9415 166.693 61.8081 166.56C61.7015 166.4 61.6481 166.107 61.6481 165.68V164.44H63.9681C64.7948 164.44 65.3148 164.267 65.5281 163.92C65.7415 163.573 65.8481 162.987 65.8481 162.16V159.08C65.8481 158.253 65.7148 157.707 65.4481 157.44C65.1815 157.147 64.6348 157 63.8081 157H62.0881C61.2081 157 60.6481 157.16 60.4081 157.48C60.1681 157.773 60.0481 158.373 60.0481 159.28V170.4C60.0481 171.227 60.1548 171.813 60.3681 172.16C60.5815 172.507 61.1015 172.68 61.9281 172.68H67.6881ZM76.8916 147V173.92C76.8916 174.347 76.8116 174.64 76.6516 174.8C76.5182 174.933 76.2382 175 75.8116 175H73.6916V148.08C73.6916 147.653 73.7582 147.373 73.8916 147.24C74.0516 147.08 74.3449 147 74.7716 147H76.8916ZM82.1997 158.48C82.1997 157.093 82.4797 156.12 83.0397 155.56C83.6264 154.973 84.613 154.68 85.9997 154.68H91.5997C92.9864 154.68 93.9597 154.973 94.5197 155.56C95.1064 156.12 95.3997 157.093 95.3997 158.48V171.2C95.3997 172.587 95.1064 173.573 94.5197 174.16C93.9597 174.72 92.9864 175 91.5997 175H85.9997C84.613 175 83.6264 174.72 83.0397 174.16C82.4797 173.573 82.1997 172.587 82.1997 171.2V158.48ZM87.2797 157C86.453 157 85.933 157.173 85.7197 157.52C85.5064 157.867 85.3997 158.453 85.3997 159.28V170.4C85.3997 171.227 85.5064 171.813 85.7197 172.16C85.933 172.507 86.453 172.68 87.2797 172.68H90.3197C91.1464 172.68 91.6664 172.507 91.8797 172.16C92.093 171.813 92.1997 171.227 92.1997 170.4V159.28C92.1997 158.453 92.093 157.867 91.8797 157.52C91.6664 157.173 91.1464 157 90.3197 157H87.2797ZM114.414 175C113.988 175 113.708 174.933 113.574 174.8C113.468 174.64 113.414 174.347 113.414 173.92V172.68H116.494C117.321 172.68 117.841 172.507 118.054 172.16C118.268 171.813 118.374 171.227 118.374 170.4V163.92C118.374 163.093 118.268 162.507 118.054 162.16C117.841 161.813 117.321 161.64 116.494 161.64H111.814V175H108.614V148.08C108.614 147.653 108.681 147.373 108.814 147.24C108.974 147.08 109.268 147 109.694 147H117.774C119.161 147 120.134 147.293 120.694 147.88C121.281 148.44 121.574 149.413 121.574 150.8V156.64C121.574 158.693 120.841 159.893 119.374 160.24V160.32C120.148 160.533 120.708 160.92 121.054 161.48C121.401 162.04 121.574 162.853 121.574 163.92V171.2C121.574 172.587 121.281 173.573 120.694 174.16C120.134 174.72 119.161 175 117.774 175H114.414ZM111.814 149.32V159.32H116.734C117.428 159.293 117.868 159.107 118.054 158.76C118.268 158.387 118.374 157.813 118.374 157.04V151.6C118.374 150.773 118.268 150.187 118.054 149.84C117.841 149.493 117.321 149.32 116.494 149.32H111.814ZM135.968 159.28C135.968 158.453 135.861 157.867 135.648 157.52C135.435 157.173 134.915 157 134.088 157H127.168C127.328 156.227 127.568 155.653 127.888 155.28C128.235 154.88 128.795 154.68 129.568 154.68H135.368C136.755 154.68 137.728 154.973 138.288 155.56C138.875 156.12 139.168 157.093 139.168 158.48V175H137.048C136.621 175 136.328 174.933 136.168 174.8C136.035 174.64 135.968 174.347 135.968 173.92V159.28ZM130.168 175C128.781 175 127.795 174.72 127.208 174.16C126.648 173.573 126.368 172.587 126.368 171.2V166.8C126.368 165.413 126.648 164.44 127.208 163.88C127.795 163.293 128.781 163 130.168 163H133.568C134.341 163 134.888 163.2 135.208 163.6C135.555 163.973 135.808 164.547 135.968 165.32H131.448C130.621 165.32 130.101 165.493 129.888 165.84C129.675 166.187 129.568 166.773 129.568 167.6V170.72C129.568 171.547 129.715 172.08 130.008 172.32C130.328 172.56 130.901 172.68 131.728 172.68H134.368V173.92C134.368 174.347 134.301 174.64 134.168 174.8C134.061 174.933 133.795 175 133.368 175H130.168ZM147.55 157V173.92C147.55 174.347 147.47 174.64 147.31 174.8C147.177 174.933 146.897 175 146.47 175H144.35V155.76C144.35 155.333 144.417 155.053 144.55 154.92C144.71 154.76 145.003 154.68 145.43 154.68H147.55V157C147.897 156.093 148.257 155.48 148.63 155.16C149.003 154.84 149.577 154.68 150.35 154.68H151.91C152.337 154.68 152.603 154.76 152.71 154.92C152.843 155.053 152.91 155.333 152.91 155.76V157H147.55ZM159.933 157V173.92C159.933 174.347 159.853 174.64 159.693 174.8C159.559 174.933 159.279 175 158.853 175H156.733V155.76C156.733 155.333 156.799 155.053 156.933 154.92C157.093 154.76 157.386 154.68 157.813 154.68H159.933V157C160.279 156.093 160.639 155.48 161.013 155.16C161.386 154.84 161.959 154.68 162.733 154.68H164.293C164.719 154.68 164.986 154.76 165.093 154.92C165.226 155.053 165.293 155.333 165.293 155.76V157H159.933ZM179.876 172.68V173.92C179.876 174.347 179.809 174.64 179.676 174.8C179.569 174.933 179.302 175 178.876 175H172.836C171.449 175 170.462 174.72 169.876 174.16C169.316 173.573 169.036 172.587 169.036 171.2V158.48C169.036 157.093 169.316 156.12 169.876 155.56C170.462 154.973 171.449 154.68 172.836 154.68H177.236C178.622 154.68 179.596 154.973 180.156 155.56C180.742 156.12 181.036 157.093 181.036 158.48V162.96C181.036 164.347 180.742 165.333 180.156 165.92C179.596 166.48 178.622 166.76 177.236 166.76H174.836C174.409 166.76 174.129 166.693 173.996 166.56C173.889 166.4 173.836 166.107 173.836 165.68V164.44H176.156C176.982 164.44 177.502 164.267 177.716 163.92C177.929 163.573 178.036 162.987 178.036 162.16V159.08C178.036 158.253 177.902 157.707 177.636 157.44C177.369 157.147 176.822 157 175.996 157H174.276C173.396 157 172.836 157.16 172.596 157.48C172.356 157.773 172.236 158.373 172.236 159.28V170.4C172.236 171.227 172.342 171.813 172.556 172.16C172.769 172.507 173.289 172.68 174.116 172.68H179.876ZM192.799 154.68C193.226 154.68 193.492 154.76 193.599 154.92C193.732 155.053 193.799 155.333 193.799 155.76V157H188.879V170.4C188.879 171.227 188.986 171.813 189.199 172.16C189.412 172.507 189.932 172.68 190.759 172.68H194.239C194.186 173.453 194.026 174.04 193.759 174.44C193.519 174.813 193.012 175 192.239 175H189.479C188.092 175 187.106 174.72 186.519 174.16C185.959 173.573 185.679 172.587 185.679 171.2V151.12C185.679 150.693 185.746 150.413 185.879 150.28C186.039 150.12 186.332 150.04 186.759 150.04H188.879V154.68H192.799ZM197.708 158.48C197.708 157.093 197.988 156.12 198.548 155.56C199.134 154.973 200.121 154.68 201.508 154.68H207.108C208.494 154.68 209.468 154.973 210.028 155.56C210.614 156.12 210.908 157.093 210.908 158.48V171.2C210.908 172.587 210.614 173.573 210.028 174.16C209.468 174.72 208.494 175 207.108 175H201.508C200.121 175 199.134 174.72 198.548 174.16C197.988 173.573 197.708 172.587 197.708 171.2V158.48ZM202.788 157C201.961 157 201.441 157.173 201.228 157.52C201.014 157.867 200.908 158.453 200.908 159.28V170.4C200.908 171.227 201.014 171.813 201.228 172.16C201.441 172.507 201.961 172.68 202.788 172.68H205.828C206.654 172.68 207.174 172.507 207.388 172.16C207.601 171.813 207.708 171.227 207.708 170.4V159.28C207.708 158.453 207.601 157.867 207.388 157.52C207.174 157.173 206.654 157 205.828 157H202.788Z" fill="#1A267A"/>
<path d="M18.0022 198V198.62C18.0022 198.833 17.9689 198.98 17.9022 199.06C17.8489 199.127 17.7155 199.16 17.5022 199.16H14.1822V204.16H17.4022V204.78C17.4022 204.993 17.3689 205.14 17.3022 205.22C17.2489 205.287 17.1155 205.32 16.9022 205.32H14.1822V211.46C14.1822 211.673 14.1422 211.82 14.0622 211.9C13.9955 211.967 13.8555 212 13.6422 212H12.5822V198.54C12.5822 198.327 12.6155 198.187 12.6822 198.12C12.7622 198.04 12.9089 198 13.1222 198H18.0022ZM28.3269 212V202.38C28.3269 202.167 28.3602 202.027 28.4269 201.96C28.5069 201.88 28.6535 201.84 28.8669 201.84H29.9269V211.46C29.9269 211.673 29.8869 211.82 29.8069 211.9C29.7402 211.967 29.6002 212 29.3869 212H28.3269ZM23.3269 202.38C23.3269 202.167 23.3602 202.027 23.4269 201.96C23.5069 201.88 23.6535 201.84 23.8669 201.84H24.9269V209.7C24.9269 210.113 24.9802 210.407 25.0869 210.58C25.1935 210.753 25.4535 210.84 25.8669 210.84H27.5269V211.46C27.5269 211.673 27.4935 211.82 27.4269 211.9C27.3735 211.967 27.2402 212 27.0269 212H25.2269C24.5335 212 24.0402 211.86 23.7469 211.58C23.4669 211.287 23.3269 210.793 23.3269 210.1V202.38ZM37.8466 198V211.46C37.8466 211.673 37.8066 211.82 37.7266 211.9C37.6599 211.967 37.5199 212 37.3066 212H36.2466V198.54C36.2466 198.327 36.2799 198.187 36.3466 198.12C36.4266 198.04 36.5732 198 36.7866 198H37.8466ZM45.8606 198V211.46C45.8606 211.673 45.8206 211.82 45.7406 211.9C45.674 211.967 45.534 212 45.3206 212H44.2606V198.54C44.2606 198.327 44.294 198.187 44.3606 198.12C44.4406 198.04 44.5873 198 44.8006 198H45.8606ZM65.0809 210.1C65.0809 210.793 64.9343 211.287 64.6409 211.58C64.3609 211.86 63.8743 212 63.1809 212H60.7409C60.3543 212 60.0743 211.907 59.9009 211.72C59.7409 211.52 59.6209 211.227 59.5409 210.84H62.5409C62.9543 210.84 63.2143 210.753 63.3209 210.58C63.4276 210.407 63.4809 210.113 63.4809 209.7V206.46C63.4809 206.047 63.4209 205.753 63.3009 205.58C63.1943 205.407 62.9143 205.32 62.4609 205.32H61.4409C60.7476 205.32 60.2543 205.18 59.9609 204.9C59.6809 204.607 59.5409 204.113 59.5409 203.42V199.9C59.5409 199.207 59.6809 198.72 59.9609 198.44C60.2543 198.147 60.7476 198 61.4409 198H63.8209C64.2076 198 64.4809 198.1 64.6409 198.3C64.8143 198.487 64.9409 198.773 65.0209 199.16H62.0809C61.6676 199.16 61.4076 199.247 61.3009 199.42C61.1943 199.593 61.1409 199.887 61.1409 200.3V203.02C61.1409 203.433 61.1943 203.727 61.3009 203.9C61.4076 204.073 61.6676 204.16 62.0809 204.16H63.1809C63.8743 204.16 64.3609 204.307 64.6409 204.6C64.9343 204.88 65.0809 205.367 65.0809 206.06V210.1ZM74.7706 201.84C74.984 201.84 75.1173 201.88 75.1706 201.96C75.2373 202.027 75.2706 202.167 75.2706 202.38V203H72.8106V209.7C72.8106 210.113 72.864 210.407 72.9706 210.58C73.0773 210.753 73.3373 210.84 73.7506 210.84H75.4906C75.464 211.227 75.384 211.52 75.2506 211.72C75.1306 211.907 74.8773 212 74.4906 212H73.1106C72.4173 212 71.924 211.86 71.6306 211.58C71.3506 211.287 71.2106 210.793 71.2106 210.1V200.06C71.2106 199.847 71.244 199.707 71.3106 199.64C71.3906 199.56 71.5373 199.52 71.7506 199.52H72.8106V201.84H74.7706ZM85.3848 204.14C85.3848 203.727 85.3315 203.433 85.2248 203.26C85.1182 203.087 84.8582 203 84.4448 203H80.9848C81.0648 202.613 81.1848 202.327 81.3448 202.14C81.5182 201.94 81.7982 201.84 82.1848 201.84H85.0848C85.7782 201.84 86.2648 201.987 86.5448 202.28C86.8382 202.56 86.9848 203.047 86.9848 203.74V212H85.9248C85.7115 212 85.5648 211.967 85.4848 211.9C85.4182 211.82 85.3848 211.673 85.3848 211.46V204.14ZM82.4848 212C81.7915 212 81.2982 211.86 81.0048 211.58C80.7248 211.287 80.5848 210.793 80.5848 210.1V207.9C80.5848 207.207 80.7248 206.72 81.0048 206.44C81.2982 206.147 81.7915 206 82.4848 206H84.1848C84.5715 206 84.8448 206.1 85.0048 206.3C85.1782 206.487 85.3048 206.773 85.3848 207.16H83.1248C82.7115 207.16 82.4515 207.247 82.3448 207.42C82.2382 207.593 82.1848 207.887 82.1848 208.3V209.86C82.1848 210.273 82.2582 210.54 82.4048 210.66C82.5648 210.78 82.8515 210.84 83.2648 210.84H84.5848V211.46C84.5848 211.673 84.5515 211.82 84.4848 211.9C84.4315 211.967 84.2982 212 84.0848 212H82.4848ZM97.6358 201.84C97.8491 201.84 97.9825 201.88 98.0358 201.96C98.1025 202.027 98.1358 202.167 98.1358 202.38V203H95.6758C95.2625 203 95.0025 203.087 94.8958 203.26C94.7891 203.433 94.7358 203.727 94.7358 204.14V209.7C94.7358 210.113 94.7891 210.407 94.8958 210.58C95.0025 210.753 95.2625 210.84 95.6758 210.84H98.1358V211.46C98.1358 211.673 98.1025 211.82 98.0358 211.9C97.9825 211.967 97.8491 212 97.6358 212H95.0358C94.3425 212 93.8491 211.86 93.5558 211.58C93.2758 211.287 93.1358 210.793 93.1358 210.1V203.74C93.1358 203.047 93.2758 202.56 93.5558 202.28C93.8491 201.987 94.3425 201.84 95.0358 201.84H97.6358ZM105.505 211.46C105.505 211.673 105.465 211.82 105.385 211.9C105.318 211.967 105.178 212 104.965 212H103.905V198.54C103.905 198.327 103.938 198.187 104.005 198.12C104.085 198.04 104.232 198 104.445 198H105.505V211.46ZM106.105 205.86L108.305 202.38C108.412 202.193 108.512 202.06 108.605 201.98C108.698 201.887 108.852 201.84 109.065 201.84H110.325L107.285 206.36L110.525 212H109.145C108.932 212 108.778 211.96 108.685 211.88C108.592 211.787 108.492 211.647 108.385 211.46L106.105 207.14V205.86ZM126.391 212C126.177 212 126.037 211.967 125.971 211.9C125.917 211.82 125.891 211.673 125.891 211.46V210.84H127.631C128.044 210.84 128.304 210.753 128.411 210.58C128.517 210.407 128.571 210.113 128.571 209.7V200.3C128.571 199.887 128.517 199.593 128.411 199.42C128.304 199.247 128.044 199.16 127.631 199.16H125.091V212H123.491V198.54C123.491 198.327 123.524 198.187 123.591 198.12C123.671 198.04 123.817 198 124.031 198H128.271C128.964 198 129.451 198.147 129.731 198.44C130.024 198.72 130.171 199.207 130.171 199.9V210.1C130.171 210.793 130.024 211.287 129.731 211.58C129.451 211.86 128.964 212 128.271 212H126.391ZM141.842 210.84V211.46C141.842 211.673 141.809 211.82 141.742 211.9C141.689 211.967 141.556 212 141.342 212H138.322C137.629 212 137.136 211.86 136.842 211.58C136.562 211.287 136.422 210.793 136.422 210.1V203.74C136.422 203.047 136.562 202.56 136.842 202.28C137.136 201.987 137.629 201.84 138.322 201.84H140.522C141.216 201.84 141.702 201.987 141.982 202.28C142.276 202.56 142.422 203.047 142.422 203.74V205.98C142.422 206.673 142.276 207.167 141.982 207.46C141.702 207.74 141.216 207.88 140.522 207.88H139.322C139.109 207.88 138.969 207.847 138.902 207.78C138.849 207.7 138.822 207.553 138.822 207.34V206.72H139.982C140.396 206.72 140.656 206.633 140.762 206.46C140.869 206.287 140.922 205.993 140.922 205.58V204.04C140.922 203.627 140.856 203.353 140.722 203.22C140.589 203.073 140.316 203 139.902 203H139.042C138.602 203 138.322 203.08 138.202 203.24C138.082 203.387 138.022 203.687 138.022 204.14V209.7C138.022 210.113 138.076 210.407 138.182 210.58C138.289 210.753 138.549 210.84 138.962 210.84H141.842ZM152.244 211.46C152.191 211.673 152.118 211.82 152.024 211.9C151.944 211.967 151.798 212 151.584 212H150.384L147.744 202.38C147.664 202.02 147.798 201.84 148.144 201.84H149.044L150.804 208.14L151.244 210.52H151.364L151.784 208.14L153.424 202.38C153.478 202.167 153.551 202.027 153.644 201.96C153.738 201.88 153.891 201.84 154.104 201.84H154.924L152.244 211.46ZM165.781 210.84V211.46C165.781 211.673 165.747 211.82 165.681 211.9C165.627 211.967 165.494 212 165.281 212H162.261C161.567 212 161.074 211.86 160.781 211.58C160.501 211.287 160.361 210.793 160.361 210.1V203.74C160.361 203.047 160.501 202.56 160.781 202.28C161.074 201.987 161.567 201.84 162.261 201.84H164.461C165.154 201.84 165.641 201.987 165.921 202.28C166.214 202.56 166.361 203.047 166.361 203.74V205.98C166.361 206.673 166.214 207.167 165.921 207.46C165.641 207.74 165.154 207.88 164.461 207.88H163.261C163.047 207.88 162.907 207.847 162.841 207.78C162.787 207.7 162.761 207.553 162.761 207.34V206.72H163.921C164.334 206.72 164.594 206.633 164.701 206.46C164.807 206.287 164.861 205.993 164.861 205.58V204.04C164.861 203.627 164.794 203.353 164.661 203.22C164.527 203.073 164.254 203 163.841 203H162.981C162.541 203 162.261 203.08 162.141 203.24C162.021 203.387 161.961 203.687 161.961 204.14V209.7C161.961 210.113 162.014 210.407 162.121 210.58C162.227 210.753 162.487 210.84 162.901 210.84H165.781ZM173.982 198V211.46C173.982 211.673 173.942 211.82 173.862 211.9C173.796 211.967 173.656 212 173.442 212H172.382V198.54C172.382 198.327 172.416 198.187 172.482 198.12C172.562 198.04 172.709 198 172.922 198H173.982ZM180.237 203.74C180.237 203.047 180.377 202.56 180.657 202.28C180.95 201.987 181.443 201.84 182.137 201.84H184.937C185.63 201.84 186.117 201.987 186.397 202.28C186.69 202.56 186.837 203.047 186.837 203.74V210.1C186.837 210.793 186.69 211.287 186.397 211.58C186.117 211.86 185.63 212 184.937 212H182.137C181.443 212 180.95 211.86 180.657 211.58C180.377 211.287 180.237 210.793 180.237 210.1V203.74ZM182.777 203C182.363 203 182.103 203.087 181.997 203.26C181.89 203.433 181.837 203.727 181.837 204.14V209.7C181.837 210.113 181.89 210.407 181.997 210.58C182.103 210.753 182.363 210.84 182.777 210.84H184.297C184.71 210.84 184.97 210.753 185.077 210.58C185.183 210.407 185.237 210.113 185.237 209.7V204.14C185.237 203.727 185.183 203.433 185.077 203.26C184.97 203.087 184.71 203 184.297 203H182.777ZM197.698 201.84C198.391 201.84 198.878 201.987 199.158 202.28C199.451 202.56 199.598 203.047 199.598 203.74V210.1C199.598 210.793 199.451 211.287 199.158 211.58C198.878 211.86 198.391 212 197.698 212H195.798C195.411 212 195.131 211.907 194.958 211.72C194.798 211.52 194.678 211.227 194.598 210.84V215.48C194.598 215.693 194.558 215.833 194.478 215.9C194.411 215.98 194.271 216.02 194.058 216.02H192.998V202.38C192.998 202.167 193.031 202.027 193.098 201.96C193.178 201.88 193.324 201.84 193.538 201.84H194.598V210.84H197.058C197.471 210.84 197.731 210.753 197.838 210.58C197.944 210.407 197.998 210.113 197.998 209.7V204.14C197.998 203.727 197.944 203.433 197.838 203.26C197.731 203.087 197.471 203 197.058 203H195.398V202.38C195.398 202.167 195.424 202.027 195.478 201.96C195.544 201.88 195.684 201.84 195.898 201.84H197.698Z" fill="url(#paint0_linear_0_1)"/>
<defs>
<linearGradient id="paint0_linear_0_1" x1="-45" y1="194" x2="276" y2="230" gradientUnits="userSpaceOnUse">
<stop stop-color="#3D98FF"/>
<stop offset="1" stop-color="#3D98FF" stop-opacity="0.88"/>
</linearGradient>
</defs>
</svg>
